<svg width="160" height="60" viewBox="0 0 160 60" fill="none" xmlns="http://www.w3.org/2000/svg">
<g clip-path="url(#clip0_947_658)">
<path d="M47.2308 16.187H52.4625L54.9763 27.8116H51.1955L50.7964 25.587H45.3113L44.0735 27.8116H40.3263L47.2308 16.187ZM46.6882 23.1452H50.3681L49.4756 18.1744L46.6882 23.1452Z" fill="#FFFDED"/>
<path d="M58.6405 16.187H64.092L65.0338 25.117L69.6286 16.187H75.3178L73.0551 27.8116H69.5613L71.3598 18.5459L66.6574 27.8116H62.3541L61.336 18.5123L59.5196 27.8116H56.3801L58.6428 16.187H58.6405Z" fill="#FFFDED"/>
<path d="M77.9661 16.187H88.8532L88.407 18.4788H81.1661L80.7198 20.7706H87.2858L86.8395 23.0624H80.2736L79.8094 25.522H87.1019L86.6579 27.8139H75.7191L77.9638 16.1892L77.9661 16.187Z" fill="#FFFDED"/>
<path d="M93.3472 23.7002L92.5488 27.8116H88.9205L91.1652 16.187H101.851L103.707 18.0558L103.113 21.104L101.086 23.0915L101.653 25.4169H102.92L102.456 27.8094H98.7605L97.7693 23.698H93.3472V23.7002ZM93.7934 21.3928H99.0251L99.505 20.9205L99.9131 18.848L99.4489 18.3937H94.3854L93.7934 21.3928Z" fill="#FFFDED"/>
<path d="M106.138 16.187H115.068L114.606 18.528H111.955L110.619 25.4683H113.269L112.823 27.8094H103.893L104.34 25.4683H106.99L108.327 18.528H105.676L106.138 16.187Z" fill="#FFFDED"/>
<path d="M115.169 25.8398L116.653 18.1565L118.662 16.1847H127.778L129.736 18.1565L129.271 20.5825H125.625L125.883 19.2845L125.219 18.6108H120.746L120.075 19.2845L119.019 24.7096L119.665 25.3833H124.138L124.825 24.7096L125.085 23.3623H128.731L128.249 25.8398L126.222 27.8116H117.106L115.166 25.8398H115.169Z" fill="#FFFDED"/>
<path d="M135.761 16.187H140.993L143.507 27.8116H139.726L139.327 25.587H133.842L132.604 27.8116H128.857L135.761 16.187ZM135.219 23.1452H138.898L138.006 18.1744L135.219 23.1452Z" fill="#FFFDED"/>
<path d="M147.171 16.187H151.645L155.237 24.0539L156.775 16.187H160L157.737 27.8116H153.264L149.689 19.8082L148.131 27.8116H144.906L147.169 16.187H147.171Z" fill="#FFFDED"/>
<path d="M41.1403 42.0459L41.4744 40.2935H45.1028L44.9189 41.2021L45.2014 41.4729H50.2156L50.4555 41.2379L50.7538 39.6534L50.6215 39.5191L43.7304 38.8454L42.1225 37.2273L42.7347 34.0604L44.6408 32.1893H53.7228L55.4652 33.9574L55.1131 35.7099H51.4848L51.6709 34.7833L51.3884 34.4968H46.4774L46.2531 34.7497L45.9571 36.2828L46.1074 36.4171L52.9828 37.0751L54.5906 38.7089L53.9605 41.943L52.0544 43.814H42.8894L41.147 42.0459H41.1403Z" fill="#FFFDED"/>
<path d="M65.8612 39.537H60.273L59.4388 43.8163H55.8105L58.0552 32.1916H61.7014L60.8112 36.7752H66.3994L67.2897 32.1916H70.918L68.6733 43.8163H65.045L65.8635 39.537H65.8612Z" fill="#FFFDED"/>
<path d="M73.2143 32.1916H82.1438L81.6819 34.5326H79.0313L77.6948 41.473H80.3454L79.8991 43.814H70.9696L71.4159 41.473H74.0665L75.403 34.5326H72.7524L73.2143 32.1916Z" fill="#FFFDED"/>
<path d="M84.4221 32.1916H95.3093L94.863 34.4834H87.6221L87.1759 36.7752H93.7418L93.2978 39.067H86.7319L86.2677 41.5267H93.5602L93.1139 43.8185H82.1752L84.4199 32.1938L84.4221 32.1916Z" fill="#FFFDED"/>
<path d="M99.487 41.3051H105.8L105.317 43.8163H95.3766L97.6213 32.1916H101.268L99.487 41.3051Z" fill="#FFFDED"/>
<path d="M109.403 32.1916H120.156L122.096 34.1634L120.611 41.8467L118.602 43.8185H107.159L109.403 32.1938V32.1916ZM116.516 41.3902L117.203 40.7165L118.259 35.2914L117.595 34.6177H112.565L111.249 41.3902H116.514H116.516Z" fill="#FFFDED"/>
<path d="M22.1107 25.7235H9.87582C9.29951 26.283 8.98556 26.5963 8.42495 27.1715V28.6733H23.5616V27.1715C23.001 26.5963 22.687 26.283 22.1107 25.7235ZM30.798 23.6667L30.7801 23.4048C28.7708 21.5047 27.5644 20.3879 25.5551 18.4855H6.44933C4.42214 20.3856 3.23364 21.5024 1.20645 23.4048L0 43.5879L0.452978 44.04C1.36118 44.9465 2.30526 45.8014 3.30091 46.5691C7.02341 49.5189 11.3402 51.6272 15.9888 52.7619C18.9264 52.0457 21.7407 50.9289 24.3622 49.4652C25.8646 48.6102 27.3155 47.6501 28.6789 46.5512C29.6746 45.7835 30.6366 44.9442 31.5268 44.04L31.9798 43.5879L30.7913 23.6667H30.798ZM15.9933 49.1698C12.5331 48.2275 9.28157 46.6586 6.39776 44.5459L10.8894 41.0388H21.0792L25.5888 44.5459C22.687 46.6564 19.4534 48.2275 15.9933 49.1698ZM23.5616 39.0513V33.0689L22.1107 31.6209H8.42495V33.1562L9.87582 34.6042H20.31L20.6621 34.9534V37.1848C20.5208 37.3258 20.4513 37.413 20.31 37.5518H11.764C11.607 37.413 11.5375 37.3258 11.3962 37.1848V36.1038H8.42495V39.0513L3.6014 42.2093L4.615 25.2535C5.96048 23.98 6.74758 23.2302 8.0953 21.9747H23.9137C25.2591 23.2302 26.0463 23.98 27.3917 25.2535L28.4053 42.2093L23.5638 39.0513H23.5616ZM22.1107 25.7235H9.87582C9.29951 26.283 8.98556 26.5963 8.42495 27.1715V28.6733H23.5616V27.1715C23.001 26.5963 22.687 26.283 22.1107 25.7235Z" fill="#FFFDED"/>
<path d="M30.0715 11.4892H1.91284L2.12363 8H29.8607L30.0715 11.4892Z" fill="#FFFDED"/>
<path d="M30.6343 20.8646L30.1746 13.2327H1.80744L1.34998 20.8646L5.74745 16.7398L5.72727 16.7219H26.2571L26.2369 16.7398L30.6343 20.8646Z" fill="#FFFDED"/>
</g>
<defs>
<clipPath id="clip0_947_658">
<rect width="160" height="44.7619" fill="white" transform="translate(0 8)"/>
</clipPath>
</defs>
</svg>
