<svg width="647" height="420" viewBox="0 0 647 420" fill="none" xmlns="http://www.w3.org/2000/svg">
<g clip-path="url(#clip0_1118_169)">
<path d="M192.856 21.9403V42.0441L223.962 73.3874V31.3433H393.755L410.596 48.3127V94.0299H441.702V36.8773L405.104 0H180.413V9.82538L187.667 13.5229C190.869 15.1329 192.856 18.3591 192.856 21.9403Z" fill="white"/>
<path d="M516.356 65.8209V275.821H553.683V65.8209C553.683 62.2336 555.657 59.0136 558.841 57.4097L566.125 53.7366V43.8806H503.913V53.7366L511.198 57.4097C514.381 59.0136 516.356 62.2336 516.356 65.8209Z" fill="white"/>
<path d="M74.6539 288.358H43.5481V131.642H192.856V275.821H223.962V219.403H290.572L265.687 194.328H223.962V152.284L178.591 106.567H0V116.393L7.25397 120.09C10.4557 121.7 12.4423 124.926 12.4423 128.507V291.493C12.4423 295.074 10.4557 298.3 7.24183 299.916L0 303.607V313.433H74.6539V288.358Z" fill="white"/>
<path d="M410.596 371.687L393.755 388.657H223.962V325.97H192.856V398.06C192.856 401.641 190.869 404.867 187.655 406.483L180.413 410.175V420H405.104L441.702 383.123V371.687L410.596 340.344V371.687Z" fill="white"/>
<path d="M610.402 106.567H566.125V131.642H592.832L615.894 154.88V265.12L592.832 288.358H572.346H553.683H516.356H497.692H441.702V227.239L410.614 203.731L441.702 180.224V144.179H410.596V177.09L387.783 194.328H343.986L368.871 219.403H387.783L410.596 236.642V261.447L437.303 288.358L441.702 292.79L462.188 313.433H610.402L647 276.555V143.444L610.402 106.567Z" fill="white"/>
<path d="M124.423 354.179V144.179H87.0962V354.179C87.0962 357.767 85.1217 360.987 81.9382 362.59L74.6539 366.263V376.119H136.865V366.263L129.581 362.59C126.398 360.987 124.423 357.766 124.423 354.179Z" fill="white"/>
<path d="M516.356 344.776H477.206L265.687 131.642H503.913V106.567H240.802L178.591 43.8806H74.6539V53.7366L81.9382 57.4097C85.1217 59.0136 87.0962 62.2336 87.0962 65.8209V94.0299H124.423V75.2239H163.573L375.092 288.358H136.865V313.433H399.976L462.188 376.119H553.683V325.97H516.356V344.776Z" fill="white"/>
</g>
<defs>
<clipPath id="clip0_1118_169">
<rect width="647" height="420" fill="white"/>
</clipPath>
</defs>
</svg>
