<svg width="160" height="60" viewBox="0 0 160 60" fill="var(--body-bg-color-rev)" xmlns="http://www.w3.org/2000/svg">
<g clip-path="url(#clip0_947_659)">
<path d="M46.9333 52.66C39.4533 56.7933 32.9333 55.4533 29.8133 53.08C24.04 48.6733 20.48 35.2733 30.92 20.28C35.7867 20.4267 39.08 21.12 41.7067 21.1C45.14 21.1 48.8067 19.88 49.8733 16.3067C50.1933 15.1078 50.1624 13.8423 49.7842 12.6605C49.4061 11.4787 48.6965 10.4303 47.74 9.63999C43.6467 6.13332 33.74 7.41332 26.4067 16.78C22.0933 16.5133 15.74 16.56 11.56 16.78C-6.73334 17.62 1.99999 27.5733 2.75332 27C6.90533 23.9176 11.7525 21.905 16.8667 21.14C19.2271 20.7354 21.6088 20.4661 24 20.3333L22.3267 22.9067C20.0083 26.8793 18.3088 31.182 17.2867 35.6667C17.0165 36.9214 16.3727 38.065 15.44 38.9467L14.14 40.1733C14.8708 40.6898 15.4855 41.3534 15.9447 42.1215C16.404 42.8895 16.6976 43.7451 16.8067 44.6333C17.4267 49.64 19.66 53.5533 22.8533 56.1067C27.82 60.1067 38.0067 61.44 48.1067 54.5133C49.3933 53.6 48.6667 51.7067 46.9333 52.66ZM43.74 10.7933C47.3733 11.2733 48.72 16.64 43.6133 18.1267C41.46 18.74 36.84 17.8133 33.1 17.3333C36.58 13.26 40.28 10.3333 43.74 10.7933Z" />
<path d="M158.08 25C157.245 27.1231 156.001 29.0619 154.42 30.7066C152.72 32.3266 150.42 31.68 150.693 28.7066C151.023 25.7596 151.526 22.8345 152.2 19.9466C152.542 18.5562 153.262 17.2873 154.28 16.28C154.052 15.9967 153.894 15.6641 153.818 15.3088C153.741 14.9534 153.749 14.5852 153.84 14.2333V14.1733C154.647 10.46 152.413 7.50664 149.173 7.87998C146.973 8.13331 145.213 9.87998 144.047 11.44C144.118 10.9984 144.118 10.5482 144.047 10.1066C143.793 9.02664 141.9 8.24664 140.34 9.01331C140.086 9.13825 139.851 9.29752 139.64 9.48664C137.94 11.0533 136.913 14.3333 135.207 16.8866C135.193 16.3314 135.119 15.7794 134.987 15.24C134.087 10.9266 130.62 10.24 126.987 11.5533C123.253 12.8866 120.987 16.1533 119.86 19.62C119.493 20.7359 118.904 21.7656 118.127 22.6466L118.293 22.8266C118.534 23.0935 118.703 23.4166 118.786 23.7661C118.869 24.1156 118.862 24.4803 118.767 24.8266C118.771 24.8419 118.771 24.858 118.767 24.8733C118.037 27.1993 116.527 29.2028 114.493 30.5466C109.867 33.14 107.713 30.5466 108.4 25.68C108.753 23.1666 110.4 18.78 112.507 18.02C114.287 17.3533 115.92 18.9 114.92 21.3533C114.16 23.1933 115.933 23.9866 116.56 22.9266C120.433 16.9266 115.607 12.6666 111.147 14.26C107.333 15.6333 104.927 19.0066 103.76 22.56C103.402 23.6632 102.826 24.6834 102.067 25.56C102.616 26.167 102.912 26.9615 102.893 27.78C102.807 33.1133 105.467 35.42 109.167 35.42C113.52 35.42 117.247 32.4466 119.493 28.8866C120.447 31.5533 122.573 32.7333 125.233 32.7333C131.713 32.7333 134.433 25.7533 135.073 20.0666C136.333 18.7333 137.567 17.14 138.627 15.8666C137.553 20.3333 136.627 25.08 135.873 29.5133C135.839 29.6825 135.84 29.857 135.876 30.0258C135.912 30.1947 135.983 30.3542 136.084 30.4944C136.185 30.6346 136.313 30.7525 136.462 30.8406C136.61 30.9288 136.775 30.9853 136.947 31.0066C138.028 31.1372 139.121 30.9025 140.053 30.34L140.267 30.2133C140.534 30.0545 140.766 29.8414 140.946 29.5876C141.126 29.3338 141.252 29.0451 141.313 28.74L141.753 26C142.259 22.7463 142.947 19.5235 143.813 16.3466V16.28L143.893 16C145.347 11.3333 149.227 11.3333 148.713 14.7133L148.253 16.7133C148.02 17.6066 147.8 18.5 147.587 19.38C147.173 21.1666 146.793 22.9666 146.52 24.7733C146.181 26.6336 145.98 28.5166 145.92 30.4066C145.92 32.4066 146.653 34.7066 148.587 35.64C149.311 35.9751 150.102 36.1394 150.9 36.12C155.827 36.12 158.533 30.62 159.68 26.9466C160.827 23.2733 158.473 23.74 158.08 25ZM132.173 19.7333C127.727 21.9533 127.507 14.44 130.84 14.9C131.103 14.9642 131.348 15.0848 131.56 15.2533C132.467 15.9733 132.547 17.3066 132.44 18.3666C132.437 18.391 132.437 18.4156 132.44 18.44C132.387 18.8066 132.333 19.22 132.273 19.6666L132.173 19.7333ZM129.507 27.1666C128.413 28.3933 126.107 28.54 125.08 27.1666C124.053 25.7933 124.253 23.4933 124.613 21.9066C124.805 21.0673 125.082 20.2498 125.44 19.4666C126.065 20.5553 127.017 21.4187 128.162 21.9335C129.306 22.4484 130.584 22.5883 131.813 22.3333C131.459 24.1087 130.671 25.769 129.52 27.1666H129.507Z" />
<path d="M100.227 30.9267C99.388 32.0365 98.3532 32.9832 97.1733 33.72C95.3 34.8 91.4733 35.72 91.3133 32.8667C93.0873 32.0578 94.7517 31.0273 96.2666 29.8C105.433 22.0667 99.5667 15.54 94.2267 17.4733C90.48 18.8067 88.0933 22.1 86.8933 25.58C86.5369 26.5996 86.0094 27.551 85.3333 28.3933C85.5661 28.7372 85.7202 29.1282 85.7847 29.5384C85.8492 29.9486 85.8226 30.3679 85.7067 30.7667C85.04 33.1133 83.5667 35.6133 82 35.8333C79.48 36.1733 80.1933 33.2333 80.1933 33.2333C81.32 27.6467 82.36 22.5667 83.2933 18.2867C92.8 14.7 104.52 9.39333 115.58 7.65333C120.713 6.89333 128.073 6.13999 132.767 8.43333C135.107 9.57999 140.353 -2.40667 117.147 1.95999C108 3.66666 94.8933 10.6067 84.0933 14.78C84.6333 12.4133 85.1267 10.38 85.5733 8.74666C86.14 6.66666 84.6733 5.31333 82.24 5.31333C81.63 5.27824 81.0304 5.48317 80.5695 5.88431C80.1085 6.28544 79.8228 6.85096 79.7733 7.45999C79.42 9.49333 78.8867 12.8533 78.2 16.7933C73.06 18.3 68.7267 18.8867 66.7066 16.52C65.8466 15.5067 64.3267 16.1067 64.8267 18.3333C65.74 22.4 70.2467 22.3733 77.5733 20.26C77.1667 22.4667 76.72 24.7667 76.24 27.0667C75.9884 28.301 75.384 29.4358 74.5 30.3333C74.7463 30.6488 74.917 31.0166 74.9991 31.4084C75.0811 31.8001 75.0723 32.2055 74.9733 32.5933V32.64C74.06 35.2133 72.7333 37.8333 71.0466 38.0733C68.9533 38.38 68.5667 36.8133 68.8533 34.74C69.0319 33.3786 69.6719 32.1197 70.6667 31.1733L70.9333 30.92C70.6746 30.5954 70.5013 30.2113 70.4291 29.8026C70.3569 29.3938 70.3881 28.9735 70.52 28.58C70.56 28.4467 70.6067 28.32 70.6467 28.1933C71.62 24.2267 66.6467 25.3133 64.02 24.68C63.6453 24.5866 63.3046 24.3894 63.0369 24.1111C62.7692 23.8328 62.5854 23.4847 62.5067 23.1067C62.4598 22.7656 62.2906 22.4532 62.0306 22.2276C61.7707 22.0019 61.4376 21.8784 61.0933 21.88C60.5003 21.8494 59.9182 22.0473 59.4668 22.433C59.0154 22.8187 58.729 23.3628 58.6667 23.9533C58.554 25.4086 58.3671 26.8571 58.1067 28.2933C58.0133 28.78 57.92 29.2333 57.8333 29.6267C57.5262 31.1197 56.7947 32.4924 55.7267 33.58C55.9585 33.8969 56.1054 34.268 56.1532 34.6577C56.2011 35.0475 56.1483 35.443 56 35.8067C55.4217 37.2384 54.6501 38.5843 53.7067 39.8067C52.1267 41.6533 49.7066 40.5933 50.5133 38.0733C51.5933 34.7355 52.5289 31.3555 53.32 27.9333V27.8533C53.3733 27.62 53.5533 26.86 53.6 26.6333L53.64 26.4067C53.64 26.32 53.64 26.2333 53.6733 26.1533C53.687 26.0324 53.6737 25.9099 53.6345 25.7947C53.5953 25.6794 53.5312 25.5742 53.4467 25.4867C52.4067 24.3667 47.66 24.5533 47.3333 26.3333C47.2885 26.6047 47.2595 26.8785 47.2467 27.1533C42.28 23.1867 36.6667 26.7867 34.6667 33.5467C34.6133 33.7267 34.56 33.9133 34.5133 34.0933C34.2224 35.1813 33.6917 36.1905 32.96 37.0467L32.8733 37.1467C33.1486 37.4157 33.3654 37.7388 33.5099 38.0956C33.6545 38.4524 33.7237 38.8352 33.7133 39.22C33.62 43.8867 35.58 47.22 40.0067 47.22C41.1713 47.2062 42.3174 46.9264 43.3573 46.4018C44.3972 45.8772 45.3034 45.1218 46.0067 44.1933C46.4599 44.6598 47.0101 45.0211 47.6184 45.2515C48.2266 45.4819 48.8781 45.5758 49.5267 45.5267C54.62 45.5267 57.26 41.2133 58.6133 37.6733C59.9373 34.2715 61.02 30.7807 61.8533 27.2267C63.52 27.8933 65.3467 27.7067 65.1467 28.7933C65.1467 28.7933 64.48 31.6867 63.6333 34.8733C62.04 40.5333 66.36 42.3333 68.72 42.3333C71.08 42.3333 72.9867 41 74.9133 38.7C74.98 38.6267 75.0333 38.5533 75.0933 38.48C75.76 39.6867 76.9867 40.48 79.0533 40.48C82.6467 40.48 85.3067 38.3267 87.0533 35.62C87.5585 36.5099 88.2964 37.2456 89.1877 37.7482C90.0791 38.2509 91.0904 38.5015 92.1133 38.4733C94.63 38.4068 97.0445 37.4636 98.94 35.8067C99.3612 35.4758 99.7598 35.1172 100.133 34.7333C100.851 34.0479 101.401 33.2061 101.74 32.2733C102.247 30.5267 100.973 30.08 100.227 30.9267ZM41.8933 42.5067C38.56 42.5067 38.96 38.4267 39.2933 36.1C39.9133 32.3 42.7733 27.74 46.8133 29.8333C46.4466 33.5951 45.4835 37.2744 43.96 40.7333C43.96 40.7333 43.2067 42.5067 41.8933 42.5067ZM95.5867 21.2333C97.8867 20.4067 99.92 22.5267 96.4667 26.5667C95.3 27.9 92.4667 30.02 91.18 30.4067C90.9333 26.24 93.4733 22 95.5867 21.2333Z" />
</g>
<defs>
<clipPath id="clip0_947_659">
<rect width="160" height="58.38" fill="white" transform="translate(0 1)"/>
</clipPath>
</defs>
</svg>