<svg width="160" height="60" viewBox="0 0 160 60" fill="none" xmlns="http://www.w3.org/2000/svg">
<path d="M18.0407 27.6005V37.9882C18.0407 40.0675 17.2147 42.0618 15.7443 43.5321C14.274 45.0024 12.2798 45.8285 10.2004 45.8285H6.01304V41.8283C6.01304 37.7818 9.36037 34.436 12.9957 33.8888C13.0458 33.8817 13.0968 33.892 13.1401 33.9182C13.1833 33.9444 13.2162 33.9847 13.2332 34.0323C13.2501 34.08 13.2501 34.132 13.2331 34.1796C13.216 34.2273 13.1831 34.2675 13.1397 34.2936C9.9652 36.1721 10.0244 38.1338 10.0228 41.8283H12.2101C13.2252 41.8283 14.1987 41.4251 14.9164 40.7073C15.6342 39.9895 16.0374 39.016 16.0374 38.001V27.6005C16.0374 25.5212 15.2114 23.527 13.7411 22.0566C12.2707 20.5863 10.2765 19.7602 8.19713 19.7602H4.00976C4.00976 25.4629 7.61471 29.3606 13.1173 31.4615C13.1501 31.4782 13.1765 31.505 13.1927 31.5379C13.2089 31.5709 13.2139 31.6082 13.2071 31.6443C13.2002 31.6804 13.1818 31.7133 13.1547 31.738C13.1275 31.7628 13.0931 31.778 13.0565 31.7815H11.8405C8.70018 31.7815 5.68851 30.534 3.46799 28.3135C1.24748 26.093 0 23.0813 0 19.941L0 15.7601H6.19705C7.75223 15.7597 9.29226 16.0656 10.7292 16.6605C12.1661 17.2553 13.4718 18.1274 14.5716 19.2269C15.6714 20.3265 16.5439 21.6319 17.1391 23.0687C17.7344 24.5054 18.0407 26.0454 18.0407 27.6005Z" fill="#FFFDED"/>
<path d="M20.0456 27.6005V37.9882C20.0456 40.0675 20.8716 42.0618 22.342 43.5321C23.8123 45.0024 25.8065 45.8285 27.8859 45.8285H32.0765V41.8283C32.0765 37.7818 28.7307 34.436 25.0938 33.8888C25.0437 33.8817 24.9927 33.892 24.9495 33.9182C24.9062 33.9444 24.8733 33.9847 24.8563 34.0323C24.8394 34.08 24.8394 34.132 24.8565 34.1796C24.8735 34.2273 24.9065 34.2675 24.9498 34.2936C28.1259 36.1721 28.0651 38.1338 28.0683 41.8283H25.8778C24.8627 41.8283 23.8892 41.4251 23.1715 40.7073C22.4537 39.9895 22.0505 39.016 22.0505 38.001V27.6005C22.0505 25.5212 22.8765 23.527 24.3468 22.0566C25.8172 20.5863 27.8114 19.7602 29.8908 19.7602H34.0814C34.0814 25.4629 30.4764 29.3606 24.9738 31.4615C24.9411 31.4782 24.9146 31.505 24.8984 31.5379C24.8823 31.5709 24.8772 31.6083 24.8841 31.6443C24.8909 31.6804 24.9093 31.7133 24.9364 31.738C24.9636 31.7628 24.998 31.778 25.0346 31.7815H26.241C29.3813 31.7815 32.393 30.534 34.6135 28.3135C36.834 26.093 38.0815 23.0813 38.0815 19.941V15.7601H31.8909C30.3355 15.7594 28.7953 16.0652 27.3582 16.66C25.9211 17.2548 24.6153 18.1268 23.5153 19.2264C22.4153 20.3259 21.5427 21.6314 20.9474 23.0683C20.352 24.5051 20.0456 26.0452 20.0456 27.6005Z" fill="#FFFDED"/>
<path d="M52.8949 28.7414L52.8581 22.8804L50.066 27.5845H47.9859L45.1906 23.082V28.7414H42.0961V15.8785H45.8338L50.0228 22.7332L54.1013 15.8785H57.4951L57.5319 28.7414H52.8949Z" fill="#FFFDED"/>
<path d="M92.9861 15.8785L88.8707 28.7414H85.3282L83.2481 21.8691L81.0656 28.7414H77.6143L73.4989 15.8785H77.9631L80.2032 23.1924L82.5745 15.8785H85.3634L87.6035 23.2852L89.9748 15.8785H92.9861Z" fill="#FFFDED"/>
<path d="M94.3574 15.8785H98.6935V28.7414H94.3574V15.8785Z" fill="#FFFDED"/>
<path d="M112.414 15.8785V28.7414H110.084L103.412 22.898V28.7414H100.409V15.8785H102.739L109.412 21.7219V15.8785H112.414Z" fill="#FFFDED"/>
<path d="M122.903 21.9539H126.743V27.5029C125.143 28.5894 122.957 29.1702 121.026 29.1702C116.79 29.1702 113.697 26.3397 113.697 22.3107C113.697 18.2818 116.793 15.4496 121.125 15.4496C123.711 15.4496 125.791 16.3921 127.122 18.0225L124.29 20.4738C123.991 19.309 123.133 18.0225 121.347 18.0225C118.845 18.0225 118.162 20.2866 118.162 22.3107C118.162 24.2788 118.845 26.1701 121.291 26.1701C121.835 26.1701 122.36 25.9653 122.903 25.7413V21.9539Z" fill="#FFFDED"/>
<path d="M98.5399 43.6508H93.6517L92.7893 45.8909H89.2692L94.8838 33.0295H98.6935L104.324 45.8925H99.412L98.5399 43.6508ZM97.3463 40.5274L96.0966 37.2921L94.847 40.5274H97.3463Z" fill="#FFFDED"/>
<path d="M111.171 42.2571H109.995V45.8925H105.657V33.0295H111.844C115.427 33.0295 117.706 34.524 117.706 37.5017C117.706 39.3562 116.824 40.7322 115.28 41.5227L117.981 45.8925H113.357L111.171 42.2571ZM111.113 35.0952H109.993V40.3082H111.113C113.118 40.3082 113.339 38.6522 113.339 37.5017C113.339 36.5081 113.125 35.0952 111.113 35.0952Z" fill="#FFFDED"/>
<path d="M146.715 33.0295V45.8925H142.379V40.721H138.378V45.8909H134.042V33.0295H138.378V38.0153H142.379V33.0295H146.715Z" fill="#FFFDED"/>
<path d="M148.179 44.9725L149.606 41.7483C150.324 42.8908 152.04 44.1772 153.936 44.1772C155.041 44.1772 156.136 43.294 155.899 42.2348C155.47 40.3147 148.379 41.9147 148.379 37.0249C148.379 34.588 150.422 32.6008 154.489 32.6008C156.249 32.6008 158.069 32.9752 159.438 33.7448L158.107 36.9449C157.177 35.5977 155.891 34.7401 154.453 34.7401C152.889 34.7401 152.184 35.6297 152.461 36.7945C152.889 38.5994 160 37.0569 160 41.8923C160 44.2924 157.957 46.3165 153.889 46.3165C151.704 46.3213 149.491 45.7773 148.179 44.9725Z" fill="#FFFDED"/>
<path d="M58.8184 22.3107C58.8184 18.3362 61.9913 15.4496 66.3211 15.4496C70.6508 15.4496 73.8254 18.3298 73.8254 22.3107C73.8254 26.2917 70.6524 29.1702 66.3211 29.1702C61.9897 29.1702 58.8184 26.2837 58.8184 22.3107ZM68.9164 20.8403C67.9099 19.0626 65.8874 17.6289 64.209 18.5794C62.5305 19.5298 62.7193 22.0019 63.729 23.7796C64.7386 25.5573 66.7563 26.9925 68.4347 26.0421C70.1132 25.0916 69.9228 22.6195 68.9164 20.8403Z" fill="#FFFDED"/>
<path d="M59.2472 39.4618C59.2472 35.4873 62.4201 32.6008 66.7499 32.6008C71.0796 32.6008 74.2542 35.4809 74.2542 39.4618C74.2542 43.4428 71.0812 46.3213 66.7499 46.3213C62.4185 46.3213 59.2472 43.4412 59.2472 39.4618ZM69.3452 37.9914C68.3387 36.2137 66.3162 34.7801 64.6378 35.7305C62.9593 36.6809 63.1481 39.153 64.1578 40.9307C65.1674 42.7084 67.1867 44.142 68.8651 43.1916C70.5436 42.2412 70.3516 39.7691 69.3452 37.9914Z" fill="#FFFDED"/>
<path d="M52.8949 45.8925L52.8581 40.0314L50.066 44.7356H47.9859L45.1906 40.241V45.9005H42.0961V33.0295H45.8338L50.0228 39.8842L54.1013 33.0295H57.4951L57.5319 45.8925H52.8949Z" fill="#FFFDED"/>
<path d="M87.9747 33.0295V45.8925H85.6434L78.9712 40.049V45.8925H75.9695V33.0295H78.2991L84.973 38.873V33.0295H87.9747Z" fill="#FFFDED"/>
<path d="M132.565 43.3196C132.447 43.4652 132.021 44.0348 131.89 44.1692C130.973 45.0963 129.816 45.7481 128.548 46.0509C127.778 46.2253 126.992 46.316 126.203 46.3213C122.413 46.2957 119.584 44.0972 118.97 40.8251C118.97 40.7963 118.958 40.7675 118.954 40.7387C118.938 40.6507 118.925 40.5611 118.912 40.4731C118.822 39.8014 118.822 39.1207 118.912 38.449C118.925 38.361 118.938 38.2714 118.954 38.1834C118.954 38.1546 118.965 38.1258 118.97 38.097C119.584 34.8249 122.413 32.6264 126.203 32.6008C126.992 32.6061 127.778 32.6968 128.548 32.8712C129.816 33.174 130.973 33.8258 131.89 34.7529C132.021 34.8873 132.447 35.4569 132.565 35.6025L129.436 37.625C129.135 36.4601 128.279 35.1737 126.493 35.1737C124.069 35.1737 123.351 37.297 123.309 39.2714C123.309 39.3338 123.309 39.3978 123.309 39.4618C123.309 39.5258 123.309 39.5882 123.309 39.6523C123.351 41.6251 124.069 43.7484 126.493 43.7484C128.279 43.7484 129.135 42.4684 129.436 41.2987L132.565 43.3196Z" fill="#FFFDED"/>
<path d="M135.804 19.2418H131.903V15.8817H143.903V19.2418H140.142V28.7414H135.804V19.2418Z" fill="#FFFDED"/>
<path d="M159.846 22.4419C159.846 26.4149 156.675 29.3014 152.345 29.3014L151.846 30.8839L150.886 29.6038L150.52 29.1238L148.585 26.5637L151.318 25.7173L151.366 25.6805L151.779 25.5525L153.765 24.938L153.262 26.4805C153.682 26.4923 154.097 26.3882 154.462 26.1797C156.141 25.2197 155.952 22.7572 154.942 20.9779C154.773 20.68 154.579 20.3968 154.363 20.1315L158.77 18.7522C159.484 19.849 159.859 21.1328 159.846 22.4419Z" fill="#FFFDED"/>
<path d="M155.616 18.3362L153.246 19.069L152.766 19.2194L150.432 19.9426L150.912 18.4578C150.677 18.5066 150.451 18.5919 150.243 18.7106C148.564 19.661 148.755 22.1331 149.763 23.9108C149.905 24.1652 150.066 24.409 150.243 24.6404L145.851 26.0165C145.185 24.9438 144.839 23.7041 144.851 22.4419C144.851 18.629 147.769 15.8177 151.83 15.5953L152.342 14L153.259 15.2144L153.606 15.6641L155.616 18.3362Z" fill="#FFFDED"/>
</svg>
