<?xml version="1.0" encoding="UTF-8"?>
<svg id="Layer_2" data-name="Layer 2" xmlns="http://www.w3.org/2000/svg" viewBox="0 0 480.35 479.59">
  <defs>
    <style>
      .cls-1 {
        fill: #fff;
      }
    </style>
  </defs>
  <g id="Layer_1-2" data-name="Layer 1">
    <g>
      <g>
        <path class="cls-1" d="M127.9,296.88l-8.06-65.64,17.06-2.09,2.86,10.35c1.55-3.88,4.01-7.17,7.39-9.83,3.37-2.66,7.67-4.31,12.88-4.95,5.47-.67,10.22-.07,14.24,1.82,4.02,1.89,7.28,4.9,9.77,9.05,2.5,4.15,4.13,9.38,4.91,15.73l4.6,37.51-19.4,2.38-4.38-35.69c-.59-4.77-2.07-8.36-4.43-10.77-2.37-2.39-5.76-3.32-10.18-2.78-2.61.32-4.89,1.25-6.87,2.77-1.97,1.52-3.42,3.52-4.35,6.02-.93,2.49-1.19,5.39-.79,8.68l4.3,35.04-19.54,2.4Z"/>
        <path class="cls-1" d="M242.18,284.44c-3.22.4-6.15.36-8.81-.12-2.66-.46-5.05-1.29-7.18-2.49-2.13-1.18-4.01-2.61-5.62-4.27l-1.25,8.09-17.32,2.13-11.51-93.77,19.54-2.4,4.51,36.73c1.72-3.21,4.11-5.98,7.18-8.29,3.07-2.31,7.03-3.77,11.89-4.36,5.99-.74,11.54.11,16.63,2.52,5.1,2.42,9.36,6.04,12.77,10.86,3.41,4.82,5.53,10.58,6.35,17.27.8,6.51.13,12.53-2.01,18.09-2.14,5.56-5.37,10.08-9.7,13.61-4.33,3.53-9.48,5.67-15.47,6.41ZM235.26,267.96c3.12-.38,5.84-1.47,8.13-3.24,2.29-1.78,3.98-4.04,5.05-6.77,1.07-2.73,1.41-5.79.99-9.17-.42-3.4-1.49-6.32-3.2-8.8-1.71-2.48-3.9-4.3-6.55-5.48-2.65-1.17-5.55-1.56-8.67-1.18-3.21.39-5.97,1.51-8.25,3.34-2.29,1.82-3.97,4.1-5.04,6.83-1.08,2.73-1.4,5.84-.97,9.31.4,3.29,1.46,6.19,3.18,8.66,1.71,2.48,3.9,4.29,6.54,5.41,2.65,1.13,5.59,1.5,8.8,1.1Z"/>
        <path class="cls-1" d="M309.9,276.12c-5.82.71-11.28-.13-16.37-2.5-5.09-2.37-9.32-5.97-12.69-10.8-3.37-4.83-5.46-10.55-6.27-17.14-.82-6.69-.16-12.79,1.98-18.29,2.14-5.5,5.45-10.05,9.89-13.65,4.45-3.58,9.63-5.74,15.54-6.46,4.51-.55,8.56-.24,12.14.95,3.59,1.2,6.65,3.17,9.19,5.95l-4.41-35.94,19.54-2.4,11.51,93.77-17.32,2.13-3.25-8.2c-1.08,1.99-2.46,3.85-4.14,5.59-1.68,1.76-3.77,3.24-6.26,4.47-2.49,1.24-5.52,2.07-9.08,2.51ZM312.88,258.43c3.21-.39,5.97-1.48,8.26-3.26,2.29-1.78,3.95-4.05,4.98-6.82,1.03-2.77,1.33-5.84.91-9.24-.42-3.38-1.45-6.29-3.12-8.73-1.67-2.44-3.83-4.24-6.48-5.43-2.65-1.17-5.59-1.56-8.81-1.17-3.12.38-5.83,1.46-8.13,3.24-2.29,1.79-3.97,4.06-5.04,6.84-1.07,2.78-1.4,5.81-1,9.11.42,3.38,1.49,6.32,3.2,8.8,1.71,2.48,3.9,4.3,6.55,5.47,2.66,1.17,5.55,1.57,8.67,1.18Z"/>
        <path class="cls-1" d="M368.26,268.03c-3.56.44-6.58-.28-9.05-2.13-2.47-1.85-3.9-4.3-4.27-7.34-.38-3.13.4-5.88,2.35-8.29,1.95-2.4,4.71-3.82,8.27-4.26,3.47-.43,6.43.3,8.86,2.15,2.43,1.87,3.84,4.36,4.22,7.49.37,3.04-.4,5.76-2.3,8.15-1.91,2.39-4.6,3.81-8.07,4.23Z"/>
      </g>
      <g>
        <g>
          <path class="cls-1" d="M33.38,202.26c-.35,1.99-1.02,3.67-2.02,5.04s-2.23,2.35-3.73,2.96-3.17.76-5.04.46l.8-4.52c1.43.23,2.74-.05,3.91-.83,1.18-.78,1.92-2.03,2.23-3.75.28-1.59.13-2.89-.45-3.91-.58-1.02-1.47-1.63-2.65-1.84-1-.18-1.87-.06-2.62.35-.75.41-1.49,1.12-2.21,2.13-.72,1.01-1.52,2.34-2.39,3.99-1.17,2.21-2.52,3.75-4.04,4.61s-3.26,1.13-5.2.79c-2.23-.39-3.89-1.52-4.98-3.38-1.09-1.86-1.38-4.2-.88-7.03.49-2.75,1.58-4.83,3.29-6.25,1.71-1.42,3.82-1.93,6.33-1.54l-.81,4.56c-.67-.12-1.36-.05-2.06.22-.7.26-1.32.71-1.86,1.34-.54.63-.9,1.45-1.08,2.47-.25,1.26-.14,2.38.34,3.35.48.97,1.26,1.55,2.33,1.75,1.32.23,2.44-.11,3.37-1.03.93-.92,1.99-2.49,3.19-4.72.75-1.39,1.56-2.6,2.45-3.62s1.92-1.77,3.1-2.24c1.18-.47,2.59-.56,4.23-.27,1.51.27,2.81.89,3.9,1.86,1.09.97,1.88,2.23,2.35,3.77.48,1.54.54,3.31.19,5.3Z"/>
          <path class="cls-1" d="M36.52,184.58l-24.62-17.06,1.6-4.91,29.94.76-1.46,4.48-7.15-.31-2.8,8.57,5.95,3.97-1.46,4.48ZM18.51,167.09l10.52,7.01,2.19-6.7-12.63-.55-.08.23Z"/>
          <path class="cls-1" d="M50.05,148.77l-9.79-4.8-20.15.67,2.18-4.45,14.8-.19-8.91-11.81,2.18-4.45,11.81,16.34,9.79,4.8-1.91,3.9Z"/>
          <path class="cls-1" d="M83.96,98.96c-1.43,1.58-3.13,2.57-5.12,2.95-1.98.38-4.1.17-6.35-.65-2.25-.81-4.5-2.24-6.75-4.27-2.21-2-3.84-4.07-4.88-6.22s-1.46-4.27-1.25-6.35,1.09-3.99,2.67-5.74c1.91-2.11,4.02-3.29,6.34-3.53,2.32-.24,4.66.44,7.03,2.07l-3.16,3.5c-1.28-.79-2.55-1.13-3.81-1.04-1.26.09-2.38.68-3.35,1.75-1.48,1.64-1.91,3.54-1.28,5.7.63,2.16,2.19,4.35,4.66,6.58,2.58,2.33,4.97,3.65,7.17,3.96,2.2.31,3.97-.27,5.31-1.75.9-.99,1.34-2.08,1.34-3.26,0-1.18-.31-2.36-.92-3.54-.61-1.18-1.4-2.27-2.36-3.29l-4.04,4.47-2.68-2.42,6.98-7.73,11.44,10.33-2.69,2.98-3.05-2.37-.17.18c.57,1.25.83,2.51.77,3.79s-.67,2.58-1.86,3.9Z"/>
          <path class="cls-1" d="M105.28,78.36c-1.78,1.49-3.71,2.32-5.78,2.49s-4.16-.31-6.28-1.42c-2.11-1.12-4.15-2.85-6.12-5.19s-3.32-4.66-4.05-6.93-.83-4.42-.31-6.43c.53-2.01,1.68-3.76,3.46-5.25,1.8-1.51,3.73-2.34,5.79-2.5,2.06-.16,4.15.32,6.26,1.44,2.11,1.12,4.16,2.85,6.12,5.19,1.97,2.35,3.32,4.66,4.05,6.93.73,2.28.84,4.42.32,6.42-.51,2-1.67,3.76-3.47,5.27ZM102.65,75.22c1.57-1.32,2.25-3.09,2.02-5.31-.22-2.22-1.45-4.66-3.68-7.32s-4.42-4.29-6.57-4.9c-2.15-.61-4.01-.25-5.58,1.07-1.59,1.33-2.27,3.11-2.04,5.32s1.46,4.65,3.69,7.31,4.42,4.3,6.55,4.91c2.14.61,4,.25,5.59-1.08Z"/>
          <path class="cls-1" d="M128.98,61.15c-1.97,1.23-3.99,1.79-6.07,1.67-2.08-.12-4.08-.88-6.02-2.28-1.94-1.4-3.72-3.4-5.34-5.99-1.62-2.6-2.64-5.07-3.05-7.43s-.21-4.49.59-6.41,2.18-3.49,4.15-4.72c1.99-1.25,4.02-1.8,6.08-1.68,2.06.13,4.06.89,6,2.29s3.72,3.4,5.34,5.99c1.62,2.6,2.64,5.07,3.05,7.43.41,2.36.22,4.49-.57,6.4-.79,1.91-2.18,3.49-4.17,4.74ZM126.8,57.67c1.74-1.09,2.65-2.75,2.74-4.98.09-2.23-.79-4.82-2.63-7.76-1.84-2.94-3.78-4.86-5.83-5.76-2.04-.9-3.94-.8-5.67.28-1.76,1.1-2.68,2.76-2.76,4.99-.08,2.22.81,4.81,2.65,7.75,1.84,2.94,3.78,4.87,5.81,5.77,2.03.91,3.93.81,5.69-.29Z"/>
          <path class="cls-1" d="M145.52,51l-11.67-26.22,6.29-2.8c4.22-1.88,7.87-2.11,10.96-.68,3.09,1.42,5.54,4.17,7.35,8.24,1.81,4.07,2.21,7.73,1.21,10.97-1.01,3.25-3.62,5.81-7.84,7.69l-6.29,2.8ZM147.85,45.57l2.17-.97c3.05-1.36,4.86-3.19,5.45-5.5s.24-4.9-1.04-7.77c-1.28-2.87-2.97-4.86-5.08-5.97-2.11-1.11-4.69-.99-7.73.37l-2.17.97,8.4,18.88Z"/>
          <path class="cls-1" d="M172.56,39.68l-7.89-27.59,9.86-2.82c2.86-.82,5.22-.78,7.07.11,1.85.89,3.07,2.38,3.66,4.45.46,1.6.41,3.02-.15,4.26s-1.32,2.24-2.3,3l.08.28c1.45.1,2.8.54,4.05,1.34,1.25.79,2.12,2.06,2.62,3.79.41,1.42.43,2.81.07,4.18-.36,1.37-1.12,2.59-2.26,3.65-1.15,1.07-2.69,1.88-4.63,2.43l-10.17,2.91ZM172.14,22.4l5.16-1.48c1.6-.46,2.73-1.13,3.39-2.01.66-.88.8-1.98.42-3.3-.74-2.6-2.79-3.42-6.12-2.47l-5.08,1.45,2.23,7.81ZM175.64,34.62l5.44-1.56c1.71-.49,2.92-1.23,3.63-2.23.71-1,.86-2.21.46-3.63-.4-1.39-1.19-2.33-2.38-2.8-1.19-.47-2.61-.47-4.26,0l-5.36,1.53,2.48,8.67Z"/>
          <path class="cls-1" d="M208.74,31.16l-1.5-10.8-11.83-16.32,4.91-.68,8.44,12.16,4.8-14,4.91-.68-6.93,18.93,1.5,10.8-4.3.6Z"/>
          <path class="cls-1" d="M231.16,28.7l.47-28.7,18.32.3-.06,3.89-13.98-.23-.14,8.36,12.75.21-.06,3.85-12.75-.21-.14,8.69,13.98.23-.06,3.89-18.32-.3Z"/>
          <path class="cls-1" d="M296.04,36.32l6.81-23.85-7.41-2.12,1.07-3.75,19,5.43-1.07,3.75-7.41-2.12-6.81,23.85-4.18-1.19Z"/>
          <path class="cls-1" d="M325.5,47.38c-2.12-.94-3.71-2.31-4.77-4.1-1.06-1.79-1.55-3.88-1.47-6.27.08-2.39.74-4.98,1.98-7.78,1.24-2.8,2.73-5.02,4.45-6.68,1.72-1.66,3.6-2.69,5.64-3.1,2.04-.41,4.12-.14,6.24.8,2.15.96,3.75,2.33,4.79,4.11s1.53,3.87,1.46,6.26c-.08,2.39-.74,4.98-1.98,7.78-1.25,2.8-2.73,5.02-4.45,6.68-1.72,1.66-3.6,2.69-5.62,3.11-2.02.42-4.11.15-6.26-.81ZM327.17,43.64c1.87.83,3.76.66,5.66-.51,1.9-1.17,3.55-3.35,4.96-6.52,1.41-3.17,1.92-5.86,1.52-8.05-.4-2.2-1.53-3.71-3.41-4.55-1.9-.84-3.79-.68-5.68.5-1.89,1.18-3.54,3.36-4.95,6.53-1.41,3.17-1.92,5.85-1.54,8.04.39,2.19,1.53,3.71,3.43,4.55Z"/>
          <path class="cls-1" d="M367.69,71.53l18.44-22,7.86,6.58c2.28,1.91,3.57,3.89,3.87,5.92.29,2.03-.25,3.87-1.64,5.53-1.07,1.28-2.28,2.03-3.61,2.27-1.34.23-2.6.16-3.77-.22l-.18.22c.73,1.25,1.12,2.62,1.16,4.1s-.51,2.91-1.67,4.29c-.95,1.13-2.09,1.93-3.43,2.4-1.34.47-2.77.53-4.29.17-1.52-.35-3.06-1.18-4.61-2.47l-8.11-6.79ZM373.6,71.25l4.34,3.63c1.36,1.14,2.65,1.73,3.88,1.75s2.31-.52,3.26-1.66c.93-1.11,1.26-2.29.98-3.54-.28-1.25-1.07-2.42-2.39-3.53l-4.27-3.58-5.79,6.91ZM381.77,61.5l4.12,3.45c1.28,1.07,2.47,1.63,3.57,1.68,1.1.05,2.09-.45,2.97-1.5,1.74-2.07,1.28-4.23-1.38-6.46l-4.05-3.4-5.21,6.22Z"/>
          <path class="cls-1" d="M396.13,98.65c-1.56-1.72-2.46-3.62-2.7-5.68-.24-2.06.15-4.17,1.19-6.33,1.04-2.15,2.69-4.25,4.97-6.31,2.27-2.05,4.53-3.48,6.78-4.3,2.25-.81,4.38-1,6.41-.54,2.03.45,3.82,1.54,5.38,3.26,1.58,1.74,2.48,3.64,2.71,5.7.23,2.05-.17,4.16-1.21,6.31-1.04,2.15-2.69,4.26-4.97,6.31-2.27,2.05-4.53,3.49-6.78,4.3-2.25.81-4.38,1-6.4.56s-3.82-1.54-5.39-3.28ZM399.17,95.9c1.37,1.52,3.17,2.13,5.38,1.83,2.21-.3,4.61-1.62,7.18-3.95,2.58-2.33,4.13-4.58,4.65-6.74.53-2.17.1-4.02-1.27-5.54-1.39-1.54-3.19-2.16-5.39-1.84s-4.59,1.63-7.17,3.96c-2.58,2.33-4.13,4.57-4.67,6.73-.54,2.16-.11,4.01,1.29,5.55Z"/>
          <path class="cls-1" d="M409.43,113.78l23.76-16.1,5.27,7.77c1.26,1.86,1.98,3.6,2.17,5.24.19,1.64-.05,3.12-.72,4.45-.67,1.33-1.68,2.45-3.04,3.37-1.54,1.04-3.17,1.58-4.88,1.6s-3.39-.58-5.02-1.82l-6.53,11.71-2.83-4.17,6.32-10.92-2.65-3.9-9.4,6.37-2.44-3.6ZM424.52,108.79l2.69,3.97c1.1,1.63,2.28,2.58,3.51,2.84,1.24.27,2.44,0,3.62-.8,1.2-.81,1.9-1.83,2.11-3.06.21-1.23-.26-2.68-1.39-4.36l-2.67-3.94-7.87,5.34Z"/>
          <path class="cls-1" d="M425.63,139.24l3.46-1.7,2.74,5.59,18.85-9.25-2.71-5.52,3.46-1.7,7.33,14.94-3.46,1.7-2.71-5.52-18.85,9.25,2.75,5.59-3.46,1.7-7.4-15.09Z"/>
          <path class="cls-1" d="M437.19,164.23l27.28-8.92,1.32,4.05-16.26,17.95,19.99-6.53,1.29,3.94-27.28,8.92-1.32-4.05,16.26-17.95-19.99,6.53-1.29-3.94Z"/>
          <path class="cls-1" d="M446.95,202.13c-.37-2.1-.1-4.05.82-5.85.92-1.8,2.39-3.34,4.41-4.61s4.53-2.18,7.51-2.71c2.93-.52,5.57-.53,7.91-.03,2.34.5,4.26,1.47,5.78,2.91,1.52,1.44,2.48,3.31,2.89,5.63.5,2.8.13,5.19-1.1,7.17-1.23,1.98-3.21,3.41-5.95,4.28l-.82-4.64c1.41-.53,2.46-1.32,3.16-2.37.7-1.05.93-2.29.67-3.72-.39-2.18-1.62-3.68-3.71-4.5-2.09-.82-4.78-.94-8.06-.36-3.42.61-5.93,1.68-7.53,3.23-1.6,1.55-2.23,3.3-1.88,5.27.23,1.32.82,2.34,1.75,3.06.93.72,2.05,1.2,3.36,1.45,1.31.24,2.65.29,4.05.16l-1.05-5.93,3.55-.63,1.82,10.25-15.18,2.69-.7-3.96,3.75-.96-.04-.24c-1.33-.32-2.49-.89-3.47-1.72-.98-.83-1.62-2.11-1.93-3.86Z"/>
        </g>
        <g>
          <path class="cls-1" d="M16,325.89l26.31-11.47,1.71,3.91-14.48,19.42,19.28-8.41,1.66,3.8-26.31,11.47-1.71-3.91,14.48-19.42-19.28,8.41-1.66-3.79Z"/>
          <path class="cls-1" d="M30.82,357.12l3.29-2.01,3.25,5.32,17.92-10.94-3.21-5.25,3.29-2.01,8.67,14.21-3.29,2.01-3.2-5.25-17.92,10.94,3.25,5.32-3.29,2.01-8.76-14.35Z"/>
          <path class="cls-1" d="M53.79,391.38c-1.52-1.86-2.33-3.84-2.44-5.92s.42-4.17,1.58-6.26c1.17-2.1,2.89-4.08,5.18-5.94,2.31-1.88,4.61-3.18,6.89-3.9,2.29-.72,4.45-.82,6.48-.29,2.04.53,3.8,1.71,5.31,3.55,1.95,2.39,2.86,4.83,2.71,7.31-.15,2.48-1.24,4.75-3.27,6.79l-3.03-3.72c1.01-1.14,1.59-2.4,1.75-3.79.16-1.38-.3-2.73-1.37-4.04-1.37-1.67-3.17-2.37-5.41-2.09s-4.67,1.48-7.27,3.6c-2.58,2.11-4.23,4.23-4.94,6.36-.71,2.13-.39,4.04.98,5.71,1.11,1.36,2.31,2.1,3.6,2.25s2.61-.16,3.95-.9l3.03,3.72c-2.46,1.44-4.88,1.99-7.26,1.64-2.38-.35-4.54-1.71-6.48-4.08Z"/>
          <path class="cls-1" d="M69.76,408.64l19.58-20.98,3.18,2.96-8.95,9.59,16.38-2.66,3.93,3.67-17.92,2.74-.17.18-1.31,18.23-4.02-3.75,1.26-16.43-8.78,9.41-3.18-2.96Z"/>
          <path class="cls-1" d="M120.93,447.97l13.22-25.48,9.1,4.72c2.64,1.37,4.33,3.02,5.06,4.93.73,1.92.6,3.84-.4,5.75-.77,1.48-1.78,2.48-3.03,3-1.25.52-2.5.72-3.73.6l-.13.25c.99,1.07,1.66,2.32,2.03,3.75.36,1.44.13,2.95-.7,4.56-.68,1.31-1.62,2.34-2.82,3.08-1.2.75-2.59,1.11-4.15,1.1-1.57-.01-3.25-.48-5.04-1.41l-9.39-4.87ZM126.64,446.4l5.02,2.61c1.58.82,2.97,1.11,4.17.87,1.2-.24,2.14-1.01,2.82-2.32.67-1.29.73-2.51.19-3.66-.54-1.16-1.57-2.13-3.1-2.93l-4.95-2.57-4.15,8.01ZM132.49,435.12l4.77,2.47c1.48.77,2.76,1.06,3.85.86,1.08-.19,1.94-.89,2.57-2.11,1.25-2.4.33-4.4-2.75-6l-4.7-2.44-3.74,7.21Z"/>
          <path class="cls-1" d="M151.36,462.62l9.6-27.05,17.27,6.13-1.3,3.67-13.17-4.68-2.8,7.88,12.02,4.27-1.29,3.63-12.02-4.27-2.91,8.19,13.18,4.68-1.3,3.67-17.27-6.13Z"/>
          <path class="cls-1" d="M191.38,474.94c-2.36-.49-4.23-1.5-5.63-3.05-1.4-1.54-2.31-3.5-2.73-5.86s-.33-4.99.27-7.88c.6-2.92,1.56-5.38,2.88-7.38,1.32-2,2.94-3.44,4.85-4.32,1.91-.88,4.03-1.07,6.36-.59,3.02.62,5.26,1.94,6.72,3.96,1.45,2.02,2.04,4.46,1.75,7.33l-4.7-.97c.06-1.52-.28-2.87-1.03-4.04-.75-1.17-1.95-1.93-3.61-2.27-2.12-.44-3.96.16-5.52,1.79-1.57,1.63-2.69,4.09-3.37,7.38-.67,3.27-.61,5.95.18,8.05.79,2.1,2.25,3.37,4.36,3.81,1.71.35,3.12.18,4.21-.53,1.09-.71,1.93-1.77,2.5-3.19l4.7.97c-1,2.67-2.53,4.62-4.6,5.85-2.07,1.23-4.6,1.54-7.6.92Z"/>
          <path class="cls-1" d="M214.67,478.24l1.93-28.63,4.34.29-.88,13.09,11.03-12.41,5.36.36-12.16,13.44-.02.25,10.5,14.96-5.48-.37-9.4-13.54-.86,12.85-4.34-.29Z"/>
          <path class="cls-1" d="M247.52,479.46l-1.93-28.64,18.29-1.23.26,3.89-13.95.94.56,8.34,12.72-.86.26,3.85-12.72.86.58,8.67,13.95-.94.26,3.89-18.29,1.23Z"/>
          <path class="cls-1" d="M279.92,476.31l-5.8-28.11,9.2-1.9c2.19-.45,4.09-.45,5.67,0,1.59.45,2.87,1.24,3.84,2.37s1.62,2.49,1.96,4.1c.38,1.82.25,3.53-.39,5.12-.63,1.6-1.83,2.91-3.6,3.95l8.32,10.51-4.94,1.02-7.68-10.01-4.62.95,2.3,11.12-4.26.88ZM281.09,460.45l4.7-.97c1.93-.4,3.25-1.12,3.97-2.16.72-1.04.94-2.26.65-3.65-.29-1.42-.97-2.46-2.03-3.12-1.06-.66-2.58-.79-4.56-.38l-4.66.96,1.92,9.32Z"/>
          <path class="cls-1" d="M341.71,457.16l-13.22-25.48,6.11-3.17c4.1-2.13,7.73-2.57,10.9-1.34,3.17,1.24,5.78,3.83,7.83,7.79,2.05,3.96,2.67,7.58,1.86,10.88-.81,3.3-3.27,6.01-7.37,8.14l-6.11,3.17ZM343.71,451.59l2.11-1.09c2.96-1.54,4.66-3.47,5.11-5.82.45-2.34-.05-4.91-1.5-7.7s-3.26-4.68-5.43-5.66c-2.17-.98-4.74-.71-7.7.83l-2.11,1.1,9.52,18.34Z"/>
          <path class="cls-1" d="M371.14,440.76l-16.56-23.44,14.97-10.57,2.25,3.18-11.42,8.07,4.83,6.83,10.41-7.36,2.22,3.15-10.41,7.36,5.02,7.1,11.42-8.07,2.25,3.18-14.97,10.58Z"/>
          <path class="cls-1" d="M404.44,415.05c-1.48,1.38-3.02,2.32-4.64,2.81-1.61.5-3.2.54-4.76.13-1.56-.41-3-1.3-4.3-2.66l3.36-3.13c1.01,1.04,2.22,1.6,3.63,1.69,1.41.09,2.75-.47,4.03-1.66,1.18-1.1,1.84-2.23,1.99-3.4s-.19-2.19-1.01-3.07c-.69-.74-1.46-1.17-2.3-1.3-.85-.12-1.86,0-3.04.37-1.18.38-2.62.96-4.31,1.75-2.26,1.06-4.26,1.48-6,1.26-1.74-.22-3.29-1.06-4.63-2.5-1.55-1.66-2.2-3.56-1.95-5.69.25-2.14,1.42-4.19,3.52-6.14,2.04-1.9,4.17-2.91,6.38-3.01s4.21.75,5.99,2.57l-3.39,3.16c-.47-.5-1.06-.85-1.78-1.06-.72-.21-1.48-.22-2.29-.05-.81.17-1.59.62-2.35,1.33-.96.86-1.54,1.82-1.74,2.88s.07,2,.82,2.8c.91.98,2.02,1.38,3.31,1.2,1.29-.18,3.09-.8,5.39-1.86,1.43-.67,2.81-1.14,4.14-1.42,1.33-.28,2.6-.26,3.83.07,1.23.33,2.41,1.11,3.55,2.33,1.04,1.12,1.71,2.39,2,3.83.29,1.43.16,2.91-.38,4.42-.54,1.52-1.56,2.97-3.04,4.35Z"/>
          <path class="cls-1" d="M420.93,397.51l-2.99-2.44,3.94-4.83-16.27-13.27-3.89,4.77-2.99-2.44,10.52-12.9,2.99,2.44-3.89,4.77,16.27,13.27,3.94-4.83,2.99,2.44-10.63,13.03Z"/>
          <path class="cls-1" d="M445.39,364.87c-1.11,1.82-2.61,3.1-4.48,3.84-1.88.74-4,.92-6.36.54-2.36-.38-4.83-1.37-7.42-2.95-2.54-1.55-4.52-3.29-5.94-5.21-1.42-1.92-2.22-3.93-2.41-6.01s.33-4.13,1.56-6.13c1.48-2.43,3.34-3.97,5.57-4.64,2.23-.67,4.66-.43,7.29.73l-2.46,4.02c-1.4-.54-2.71-.64-3.94-.32-1.22.33-2.21,1.11-2.97,2.34-1.15,1.89-1.22,3.83-.2,5.83s2.95,3.87,5.8,5.61c2.96,1.81,5.56,2.66,7.78,2.56,2.22-.1,3.85-1,4.89-2.7.7-1.14.94-2.29.72-3.45-.22-1.16-.74-2.26-1.56-3.31s-1.8-1.98-2.93-2.8l-3.14,5.14-3.08-1.88,5.43-8.89,13.16,8.03-2.09,3.43-3.44-1.76-.13.21c.79,1.12,1.28,2.32,1.46,3.58.19,1.27-.18,2.66-1.11,4.17Z"/>
          <path class="cls-1" d="M456.19,344.61l-26.31-11.47,1.71-3.91,24.08-2.6-19.28-8.41,1.66-3.79,26.31,11.47-1.71,3.91-24.08,2.6,19.28,8.41-1.66,3.79Z"/>
        </g>
        <g>
          <g>
            <line class="cls-1" x1="480.18" y1="267.45" x2="449.32" y2="263.84"/>
            <rect class="cls-1" x="463.23" y="250.11" width="3.04" height="31.07" transform="translate(146.95 696.41) rotate(-83.33)"/>
          </g>
          <g>
            <line class="cls-1" x1=".18" y1="267.45" x2="31.03" y2="263.84"/>
            <rect class="cls-1" x=".07" y="264.13" width="31.06" height="3.04" transform="translate(-30.66 3.59) rotate(-6.65)"/>
          </g>
        </g>
      </g>
    </g>
  </g>
</svg>