<svg width="140" height="60" viewBox="0 0 140 60" fill="var(--body-bg-color-rev)" xmlns="http://www.w3.org/2000/svg">
<g clip-path="url(#clip0_947_660)">
<path d="M32.4373 29.6902C32.4373 33.2804 30.8261 36.1895 26.7092 36.1895C22.5922 36.1895 20.981 33.2804 20.981 29.6902C20.981 26.1 22.5969 23.198 26.7092 23.198C30.8214 23.198 32.4373 26.1072 32.4373 29.6902Z" />
<path d="M53.3898 29.6878C53.3925 34.6871 51.9913 39.5868 49.3459 43.8289C46.7005 48.071 42.917 51.485 38.4264 53.6823C37.7146 51.7508 34.8102 48.6376 29.8603 47.9661C23.9519 47.1617 16.0976 48.5712 19.9227 42.1573C22.1215 42.8303 24.403 43.1952 26.702 43.2417C37.7881 43.2417 43.3336 37.179 43.3336 29.6878C43.3607 27.4495 42.8081 25.2424 41.7295 23.281L46.3163 23.6061L46.7149 17.0237L36.2149 18.0725C32.8454 16.682 30.0454 16.141 26.702 16.141C15.6159 16.141 10.0681 22.2108 10.0681 29.6878C10.0681 33.2969 11.3542 36.5691 13.9122 38.9871C9.98983 41.1346 7.38678 45.0545 7.64068 48.3766C4.57591 45.2504 2.32717 41.4184 1.09265 37.2182C-0.141861 33.018 -0.324246 28.5786 0.561573 24.2913C1.44739 20.004 3.37422 16.0004 6.17223 12.6334C8.97024 9.26639 12.5535 6.63933 16.6063 4.98376C20.659 3.32819 25.0568 2.69494 29.412 3.13983C33.7672 3.58471 37.9461 5.09408 41.5804 7.53489C45.2147 9.9757 48.1928 13.273 50.2522 17.1362C52.3116 20.9994 53.3892 25.3099 53.3898 29.6878Z" />
<path d="M32.4373 29.6902C32.4373 33.2804 30.8261 36.1895 26.7092 36.1895C22.5922 36.1895 20.981 33.2804 20.981 29.6902C20.981 26.1 22.5969 23.198 26.7092 23.198C30.8214 23.198 32.4373 26.1072 32.4373 29.6902Z" />
<path d="M72.8475 46.0227H75.9085V47.6837C73.1346 48.3956 70.6431 47.8712 70.6431 44.3285C70.6431 40.8641 73.9651 39.9007 77.5505 41.6542L78.8603 38.6265C77.5553 37.962 75.638 37.6559 74.0292 37.6559C69.6132 37.6559 66.9105 40.138 66.9105 44.3712C66.9105 48.6424 69.739 50.9868 73.9936 50.9868C75.8368 51.0189 77.6622 50.6217 79.3254 49.8265V43.2156H73.5593L72.8475 46.0227Z" />
<path d="M72.8475 31.3441H75.9085V33.0051C73.1346 33.717 70.6431 33.1926 70.6431 29.6498C70.6431 26.1854 73.9651 25.222 77.5505 26.9756L78.8461 23.981C77.541 23.3214 75.6332 23.0176 74.0292 23.0176C69.6132 23.0176 66.9105 25.4997 66.9105 29.7329C66.9105 34.0041 69.739 36.3485 73.9936 36.3485C75.8368 36.3806 77.6622 35.9833 79.3254 35.1881V28.5441H73.5593L72.8475 31.3441Z" />
<path d="M78.4356 15.2109L78.362 15.1397C76.2573 13.1441 71.5827 13.8346 71.5827 12.4322C71.5827 10.6407 76.3285 11.5115 78.3668 12.6695L79.0169 9.51832C77.7237 8.90848 75.9773 8.39832 73.5854 8.39832C69.9003 8.39832 68.0685 10.0285 68.0685 12.5105C68.0469 13.2839 68.3123 14.0378 68.8136 14.6271C68.8705 14.6936 68.9298 14.7553 68.9891 14.817L69.0271 14.8526C69.0769 14.9024 69.1291 14.9498 69.1814 14.9973L69.2193 15.0329C71.3336 16.8458 75.2536 16.3048 75.2536 17.6692C75.2536 19.4607 70.5244 18.4617 68.4956 17.3061L67.8478 20.5831C69.0769 21.2119 71.1698 21.722 73.3861 21.722C77.2871 21.722 79.3183 19.9709 79.3183 17.4271C79.3387 16.6521 79.061 15.8987 78.5424 15.3224C78.5044 15.2844 78.4712 15.2465 78.4356 15.2109Z" />
<path d="M89.8942 33.0526H84.2088V31.1044H89.0898V28.2285H84.2088V26.3207H89.8942L90.3522 23.3261H80.4193V36.0471H90.3522L89.8942 33.0526Z" />
<path d="M87.0207 37.6583C83.2241 37.6583 80.182 40.2021 80.182 44.3546C80.182 48.7919 83.1553 50.9987 86.9614 50.9987C90.7675 50.9987 93.8 48.436 93.8 44.2834C93.8 39.8366 90.8268 37.6583 87.0207 37.6583ZM87.0207 47.8949C85.2244 47.8949 84.1542 46.5424 84.1542 44.2739C84.1542 42.0054 85.177 40.7549 86.9614 40.7549C88.7458 40.7549 89.8278 42.1004 89.8278 44.3546C89.8278 46.5732 88.779 47.8949 87.0207 47.8949Z" />
<path d="M101.016 18.4095H95.3305V16.4613H100.212V13.5854H95.3305V11.68H101.016L101.474 8.68304H91.541V21.4041H101.474L101.016 18.4095Z" />
<path d="M89.8942 18.4095H84.2088V16.4613H89.0898V13.5854H84.2088V11.68H89.8942L90.3522 8.68304H80.4193V21.4041H90.3522L89.8942 18.4095Z" />
<path d="M116.053 27.4976C116.053 24.9539 114.181 23.3261 110.638 23.3261H104.881V36.0471H108.892V32.2814L109.819 32.1983L110.121 32.1675L111.934 36.0471H116.252L113.571 31.1614C114.319 30.8924 114.963 30.3926 115.409 29.7341C115.855 29.0756 116.081 28.2925 116.053 27.4976ZM110.204 29.5312L108.687 29.5526V26.2542H109.907C111.366 26.2542 112.019 26.7288 112.019 27.7776C112.019 28.881 111.476 29.4031 110.204 29.5312Z" />
<path d="M97.1386 23.02C93.342 23.02 90.3 25.5637 90.3 29.7163C90.3 34.1536 93.2708 36.3604 97.0769 36.3604C100.883 36.3604 103.916 33.7976 103.916 29.6451C103.916 25.1983 100.945 23.02 97.1386 23.02ZM97.1386 33.2566C95.3424 33.2566 94.2698 31.9041 94.2698 29.6356C94.2698 27.4336 95.3186 26.1166 97.0769 26.1166C98.8732 26.1166 99.9458 27.4621 99.9458 29.7163C99.9458 31.9349 98.8969 33.2566 97.1386 33.2566Z" />
<path d="M122.407 31.3441H125.468V33.0051C122.695 33.717 120.203 33.1926 120.203 29.6498C120.203 26.1854 123.525 25.222 127.111 26.9756L128.406 23.981C127.101 23.3214 125.193 23.0176 123.589 23.0176C119.171 23.0176 116.471 25.4997 116.471 29.7329C116.471 34.0041 119.299 36.3485 123.554 36.3485C125.397 36.3806 127.222 35.9833 128.885 35.1881V28.5441H123.119L122.407 31.3441Z" />
<path d="M133.857 33.0526V31.1044H138.738V28.2285H133.857V26.3207H139.544L140 23.3261H130.067V36.0471H140L139.544 33.0526H133.857Z" />
</g>
<defs>
<clipPath id="clip0_947_660">
<rect width="140" height="53.3898" fill="white" transform="translate(0 3)"/>
</clipPath>
</defs>
</svg>
