<svg width="40" height="60" viewBox="0 0 40 60" fill="var(--customer-logo-color)" xmlns="http://www.w3.org/2000/svg">
<g clip-path="url(#clip0_874_862)">
<path d="M0 49.1374L0 60.0013H40V49.1374H0Z"/>
<path d="M40 6.32464C40 5.86673 39.264 5.87997 38.5333 5.62058C38.0227 5.44456 37.7813 5.28443 37.6893 5.14944C37.6987 5.0515 37.712 4.9496 37.7227 4.84902C37.804 4.82917 37.9267 4.93372 38.0053 5.00254C38.2059 5.2005 38.4468 5.35348 38.712 5.45118C39.2853 5.62455 39.7467 5.42471 39.7267 5.25399C39.7173 5.15341 39.552 5.16929 39.1493 5.05415C38.704 4.92181 39.016 4.8027 38.7307 4.73785C38.4453 4.673 37.9653 4.52081 37.7547 4.17143C37.7547 3.99409 37.7413 3.82734 37.732 3.6672C37.7592 3.66139 37.7874 3.66122 37.8147 3.66668C37.842 3.67214 37.8678 3.68314 37.8907 3.69897C38.0947 3.80087 38.1933 4.05364 38.6547 4.08276C39.116 4.11187 39.42 3.80484 39.2493 3.78764C38.7969 3.74774 38.3513 3.65216 37.9227 3.5031C37.8468 3.47473 37.7764 3.43354 37.7147 3.38134C37.7147 3.29665 37.7147 3.21195 37.7147 3.12989C37.848 3.12989 38.0307 3.34958 38.192 3.39458C38.3533 3.43957 38.812 3.45943 38.812 3.24768C38.812 3.03593 38.412 3.13651 38.412 3.01476C38.412 2.893 38.6787 2.94329 38.6787 2.82815C38.6787 2.71302 38.0293 2.64552 37.8787 2.5992C37.8273 2.58472 37.7793 2.56045 37.7373 2.52774C37.7373 2.46421 37.7373 2.39539 37.7373 2.33055C37.7895 2.32862 37.8411 2.34098 37.8867 2.36628C38.0707 2.48009 38.1373 2.31599 38.308 2.48803C38.404 2.58332 38.7373 2.54626 38.7373 2.35569C38.7373 2.16512 38.4573 2.22335 38.212 2.20482C38.0053 2.18497 37.804 2.20482 37.7347 2.10954C37.7347 2.02087 37.7347 1.9269 37.728 1.83162C37.8373 1.81838 38.0613 1.96396 38.1667 1.98249C38.272 2.00101 38.4333 1.97587 38.4733 1.86735C38.532 1.69795 38.4373 1.60266 38.2813 1.64104C37.9227 1.73368 37.7573 1.68339 37.7347 1.56561C37.692 1.36313 37.8267 1.48488 38.0013 1.49414C38.4093 1.51135 38.4293 1.30489 38.2907 1.30489C38.152 1.30489 37.8227 1.32739 37.9187 1.20034C38.0147 1.0733 38.1067 0.915808 37.9253 0.915808C37.744 0.915808 38.0347 0.725236 37.852 0.725236C37.6693 0.725236 37.7867 0.489666 37.7867 0.371882C37.7867 0.254097 37.576 0.371882 37.5627 0.287183C37.5493 0.202484 37.4507 0.0833756 37.3947 0.264684C37.352 0.408938 37.2067 0.397027 37.2333 0.510841C37.2693 0.657741 37.6333 0.844344 37.2787 0.83508C37.0613 0.828462 37.1173 0.929043 37.2293 1.04683C37.444 1.27313 36.9267 1.14873 36.9267 1.31151C36.9267 1.47429 37.488 1.30225 37.488 1.40283C37.488 1.50341 37.2213 1.46238 37.2213 1.56693C37.228 1.65163 37.2773 1.69927 37.1187 1.71383C36.96 1.72839 36.7693 1.71383 36.7693 1.83823C36.7693 1.96264 37.0533 2.03807 37.2053 1.90705C37.3573 1.77603 37.492 1.78265 37.5387 1.83162C37.5387 1.87132 37.5387 1.90705 37.5387 1.94278C37.496 1.98646 37.3867 2.02219 37.0867 2.08439C36.6093 2.18497 36.42 2.00896 36.42 2.19556C36.42 2.38216 36.82 2.23791 36.9533 2.46024C37.052 2.61773 37.372 2.51847 37.52 2.51186C37.52 2.57141 37.5133 2.62699 37.5133 2.67993C37.0614 2.86778 36.579 2.97271 36.0893 2.98961C36.0893 3.06902 36.1387 3.22253 36.372 3.27547C36.6053 3.32841 36.9627 3.22253 37.2627 3.01873C37.3345 2.96432 37.4165 2.92472 37.504 2.90227V2.98035C37.504 3.05181 37.504 3.13386 37.5107 3.22253C37.3898 3.32939 37.2469 3.40887 37.092 3.45546C36.58 3.64471 36.4093 3.56662 36.4093 3.71088C36.4093 3.85513 36.7253 3.83131 36.7253 3.96233C36.4747 4.07587 36.2005 4.12849 35.9253 4.11584C35.876 4.21378 35.8627 4.407 36.272 4.407C36.648 4.407 37.3467 4.12643 37.5373 3.83131C37.5453 3.94645 37.548 4.06026 37.548 4.1754C37.548 4.22039 37.5413 4.27333 37.5373 4.3223C36.9747 4.62007 35.956 4.81593 35.5493 4.81593C35.5493 5.00915 35.856 5.05547 36.0827 5.05547C36.3093 5.05547 36.3827 5.22223 36.624 5.18782C36.8653 5.15341 37.2013 4.87681 37.316 4.75638C37.3683 4.69276 37.432 4.63936 37.504 4.59889C37.488 4.72065 37.468 4.84373 37.448 4.9721C37.2333 5.1587 36.8253 5.27649 36.7333 5.38104C36.7057 5.40536 36.6841 5.43558 36.67 5.46942C36.6558 5.50326 36.6496 5.53984 36.6518 5.57641C36.654 5.61297 36.6645 5.64856 36.6826 5.68051C36.7006 5.71246 36.7257 5.73993 36.756 5.76086C36.6964 5.79354 36.6344 5.82185 36.5707 5.84556C36.2896 5.9449 36.0495 6.13383 35.888 6.38287C35.7948 6.54859 35.6466 6.67706 35.4686 6.74634C35.2906 6.81561 35.0938 6.82139 34.912 6.76269C34.5267 6.67799 34.536 6.18303 34.9293 6.2942C35.0136 6.31532 35.0998 6.32773 35.1867 6.33125C35.4333 6.33125 35.312 6.01363 35.516 6.11421C35.72 6.21479 35.9613 6.1473 35.9613 5.98187C35.9613 5.81644 35.428 5.91305 35.1467 5.90379C35.044 5.90013 34.9421 5.88549 34.8427 5.86011C34.4427 5.76615 34.536 5.35324 34.7613 5.43794C34.9053 5.50411 35.0507 5.61793 35.1733 5.67087C35.3547 5.75556 35.4867 5.64837 35.4733 5.57955C35.4733 5.57955 35.6507 5.50014 35.5747 5.35324C35.4242 5.36036 35.2735 5.347 35.1267 5.31354C35.1267 5.21296 34.892 5.21296 34.7347 5.1812C34.7153 5.17866 34.6964 5.17331 34.6787 5.16532C34.5133 5.11635 34.5893 4.92048 34.6787 4.90063C34.84 4.86755 34.9093 5.02106 35.048 5.02106C35.1867 5.02106 35.2827 4.81858 35.1373 4.81196C34.992 4.80535 34.7227 4.81196 34.5507 4.71403C34.5507 4.67697 34.5507 4.6386 34.5507 4.60286C34.6373 4.57904 34.904 4.50758 34.904 4.38979C34.904 4.27201 34.564 4.31039 34.564 4.20584C34.564 4.10129 34.7827 4.18334 34.7827 4.05894C34.7827 3.93454 34.5747 4.02585 34.5747 3.8816C34.5747 3.73735 34.6733 3.7969 34.6733 3.72543C34.6733 3.65397 34.584 3.67911 34.584 3.62088C34.584 3.58383 34.5933 3.55471 34.5573 3.55471C34.548 3.55471 34.5347 3.6103 34.5213 3.70161C34.4787 3.72543 34.424 3.70955 34.416 3.78366C34.408 3.85778 34.512 3.84454 34.488 3.98747C34.464 4.1304 34.2147 3.93056 34.2013 4.09864C34.188 4.26671 34.356 4.23098 34.356 4.35009C34.356 4.4692 33.932 4.46126 33.9973 4.52743C34.0627 4.5936 34.2933 4.58301 34.4493 4.51022L34.436 4.70344C34.2187 4.75241 34.1053 4.76564 34.116 4.90725C33.7667 5.04753 33.4427 4.9721 33.512 5.074C33.6547 5.25663 33.9013 5.19443 34.0133 5.1362C34.1253 5.07797 34.3067 4.97872 34.3067 5.10576C34.3067 5.30957 34.1733 5.38104 33.9173 5.41809C33.6613 5.45515 33.344 5.28575 33.3667 5.48294C33.3973 5.75424 33.7667 5.79394 34.0667 5.64704C34.0983 5.63104 34.1349 5.62734 34.1691 5.63667C34.2034 5.64599 34.2329 5.66767 34.2519 5.69747C34.2709 5.72726 34.2781 5.76302 34.2719 5.79775C34.2658 5.83249 34.2468 5.86369 34.2187 5.88526C34.1386 5.93741 34.0521 5.97921 33.9613 6.00966C33.6413 6.10759 32.9053 5.98716 32.8947 6.10759C32.8949 6.1663 32.9149 6.22326 32.9513 6.2695C32.9878 6.31573 33.0387 6.34863 33.096 6.36302C33.2533 6.39213 33.2893 6.26243 33.452 6.26243C33.5853 6.26243 33.6133 6.46095 33.8213 6.46757C33.9298 6.45694 34.0334 6.41764 34.1213 6.35375C34.2547 6.27832 34.2667 6.48609 34.1507 6.52712C34.128 6.53638 34.1053 6.54697 34.0787 6.55624C33.6627 6.70049 32.8693 6.51653 32.7453 6.68858C32.7273 6.71401 32.7154 6.74325 32.7107 6.774C32.7059 6.80476 32.7084 6.83618 32.718 6.86581C32.7276 6.89544 32.7439 6.92246 32.7658 6.94475C32.7876 6.96705 32.8144 6.984 32.844 6.99429C32.992 7.0459 33.1533 6.899 33.252 6.95061C33.3507 7.00223 33.308 7.17692 33.5067 7.2153C33.5363 7.22255 33.5624 7.23963 33.5809 7.26371C33.5993 7.28779 33.6089 7.31741 33.608 7.34764C33.608 7.656 32.4373 7.17692 32.4373 7.54086C32.4373 7.9048 32.9373 7.90745 33.1307 7.92995C33.324 7.95245 33.6027 8.1364 33.5467 8.30712C33.4907 8.47784 33.8 8.37991 33.8133 8.58107C33.8293 8.8259 33.2093 8.39182 33.0133 8.37859C32.8173 8.36535 32.66 8.55196 32.5187 8.52284C32.3773 8.49373 32.3853 8.37859 32.3307 8.21448C32.2653 8.00803 32.14 8.11655 32.02 8.0517C31.9 7.98685 31.8733 7.86907 31.8587 7.52233C31.8413 7.1134 31.672 7.14383 31.632 7.29603C31.6004 7.44611 31.5311 7.58584 31.4307 7.70232C31.392 7.74599 31.2973 7.81613 31.2867 7.91142C31.272 8.04376 31.42 8.00009 31.4413 8.12052C31.4573 8.2039 31.372 8.31639 31.16 8.34683C31.0047 8.36425 30.8478 8.36114 30.6933 8.33756C30.5359 8.31836 30.3797 8.29052 30.2253 8.25419C30.0453 8.21184 29.692 8.12184 29.6133 8.08876C29.5828 8.07793 29.5561 8.05863 29.5363 8.03316C29.5165 8.00768 29.5045 7.97711 29.5016 7.94505C29.4988 7.913 29.5054 7.88082 29.5204 7.85234C29.5355 7.82386 29.5585 7.80027 29.5867 7.78437C29.6867 7.72879 29.7613 7.88892 29.7787 7.98421C29.7819 7.99812 29.7894 8.01069 29.8002 8.02017C29.8109 8.02966 29.8244 8.03559 29.8387 8.03714C29.959 8.0535 30.0814 8.04857 30.2 8.02259C30.3167 8.00174 30.4311 7.96938 30.5413 7.92598C30.624 7.89157 30.592 7.81481 30.5507 7.76981C30.5142 7.74256 30.472 7.72378 30.4272 7.71484C30.3825 7.70591 30.3363 7.70706 30.292 7.7182C30.1507 7.74334 30.176 7.63879 30.2173 7.60439C30.2323 7.59121 30.2441 7.57486 30.2518 7.55655C30.2595 7.53824 30.263 7.51844 30.262 7.49861C30.261 7.47879 30.2555 7.45944 30.2459 7.44201C30.2363 7.42459 30.2229 7.40952 30.2067 7.39793C30.1173 7.3397 29.9627 7.37146 29.7853 7.31985C29.608 7.26824 29.4613 7.20207 29.4613 7.05517C29.4613 6.90827 29.604 6.92282 29.624 6.98635C29.6304 7.03185 29.6525 7.07374 29.6866 7.10487C29.7206 7.136 29.7645 7.15445 29.8107 7.15707C29.9333 7.15707 29.9827 7.14383 30.0773 7.14383C30.172 7.14383 30.2427 7.22986 30.308 7.22986C30.4156 7.22116 30.5165 7.17416 30.592 7.09752C30.664 7.01943 30.7933 7.07766 30.7933 7.00223C30.7933 6.92679 30.5093 6.944 30.252 6.92415C30.0787 6.91091 29.788 6.87121 29.624 6.84474C29.5871 6.83937 29.5534 6.82106 29.5289 6.79315C29.5045 6.76523 29.4909 6.72954 29.4907 6.69255C29.4907 6.62902 29.504 6.56021 29.5573 6.55094C29.6107 6.54168 29.7093 6.64226 29.824 6.69255C29.8733 6.71372 29.92 6.69255 29.9693 6.60917C30.0187 6.5258 30.1027 6.56682 30.1707 6.54035C30.2387 6.51389 30.2253 6.45433 30.1547 6.44507C30.084 6.4358 29.8187 6.37757 29.548 6.34713C29.456 6.33655 29.4453 6.23729 29.4453 6.15788C29.4453 6.07848 29.4747 6.11289 29.4853 6.13539C29.528 6.2267 29.5867 6.19494 29.6427 6.19494C29.6717 6.18963 29.7015 6.19068 29.73 6.19799C29.7586 6.2053 29.7852 6.21872 29.808 6.23729C29.8573 6.28626 29.8547 6.24655 29.96 6.23729C30.0653 6.22803 30.0293 6.19759 30.0933 6.15921C30.1573 6.12083 30.2013 6.02687 30.156 6.03481C29.9667 6.08377 29.6733 6.06392 29.6373 6.02554C29.6013 5.98716 29.6533 5.97525 29.6573 5.95275C29.6613 5.93026 29.6267 5.92099 29.616 5.89717C29.5893 5.84026 29.6347 5.8085 29.6973 5.79262C29.76 5.77674 29.76 5.73704 29.8187 5.70395C29.8773 5.67087 29.836 5.59278 29.776 5.62852C29.722 5.65609 29.6629 5.67232 29.6024 5.67619C29.5418 5.68006 29.4811 5.67149 29.424 5.65101C29.38 5.63116 29.4107 5.58484 29.4693 5.60866C29.5733 5.65234 29.5413 5.54382 29.648 5.55705C29.6593 5.55781 29.6707 5.55589 29.6811 5.55147C29.6916 5.54704 29.7008 5.54022 29.7081 5.53158C29.7154 5.52293 29.7205 5.5127 29.723 5.50172C29.7255 5.49073 29.7254 5.47931 29.7227 5.46838C29.712 5.42339 29.492 5.48426 29.456 5.41147C29.4013 5.26854 29.6013 5.26193 29.6013 5.2262C29.6013 5.19046 29.556 5.16664 29.4533 5.16664C29.3507 5.16664 29.384 5.09518 29.384 5.0343C29.384 4.97342 29.3507 4.9721 29.3507 4.92313C29.3507 4.87417 29.2787 4.88078 29.2787 4.92313C29.2787 4.96548 29.236 4.95886 29.236 5.04092C29.236 5.22487 29.0933 5.11635 29.008 5.1587C28.9227 5.20105 29.1413 5.26193 29.1493 5.32281C29.1573 5.38368 28.9307 5.37045 28.9733 5.45515C28.9973 5.50676 29.1947 5.45515 29.1587 5.53588C29.1227 5.61661 28.7707 5.53588 28.7707 5.6166C28.7707 5.69733 29.0213 5.75953 29.0213 5.83232C29.0213 6.08642 28.5587 5.91437 28.5587 6.00437C28.5587 6.06922 28.8533 6.07186 28.8533 6.17641C28.8533 6.22141 28.7907 6.24523 28.7907 6.28096C28.7907 6.36566 29.008 6.34978 29.008 6.41331C29.008 6.47683 28.6853 6.4583 28.6853 6.4583C28.5667 6.4583 28.348 6.4583 28.348 6.50727C28.348 6.55623 28.4573 6.56285 28.5173 6.54697C28.5773 6.53109 28.6187 6.71769 28.7933 6.71769C28.964 6.71769 29.004 6.78122 28.9867 6.87386C28.964 7.0062 28.7493 6.91091 28.6813 6.88444C28.5813 6.84606 28.268 6.76004 28.268 6.86459C28.268 6.96914 28.5453 6.91356 28.5347 6.98502C28.5253 7.02473 28.4133 6.97576 28.3107 6.97179C28.208 6.96782 28.0333 6.99164 28.0333 7.0909C28.0333 7.19015 28.1387 7.27353 28.228 7.2153C28.3173 7.15707 28.396 7.08296 28.436 7.1134C28.5162 7.17337 28.6161 7.20124 28.716 7.19148C28.8133 7.17692 28.8253 7.06708 28.9347 7.12928C29.068 7.20868 28.9893 7.41778 28.684 7.41778C28.492 7.42705 28.3467 7.54218 28.2547 7.55013C28.1627 7.55807 28.004 7.60174 28.004 7.73673C28.004 7.87172 28.1587 7.80555 28.2347 7.80555C28.3107 7.80555 28.2613 7.9101 28.344 7.92598C28.4267 7.94186 28.4653 7.87436 28.5613 7.83466C28.6573 7.79496 28.6467 7.92995 28.7467 7.88363C28.8467 7.83731 28.868 7.80555 28.928 7.83069C28.9419 7.838 28.9549 7.84688 28.9667 7.85716C28.9881 7.87822 29.0038 7.90429 29.0124 7.93296C29.0211 7.96164 29.0223 7.992 29.016 8.02126C28.9933 8.17478 28.7333 8.24095 28.4653 8.29654C28.34 8.323 27.9053 8.42888 27.9053 8.50167C27.9053 8.57445 27.9147 8.63401 28.0307 8.63401C28.1467 8.63401 28.1267 8.80738 28.3107 8.78488C28.4947 8.76238 28.532 8.57842 28.684 8.52946C28.8173 8.49372 28.848 8.73856 28.684 8.81135C28.4587 8.90928 27.9053 8.99398 27.9053 9.07603V23.991C27.9053 29.9596 24.7773 32.76 19.9907 32.76C15.204 32.76 12.0853 29.8366 12.0853 23.6893V0H0V23.9314C0 37.2663 7.66933 43.4175 19.8787 43.4175C32.088 43.4175 40 37.388 40 23.6271V6.32464ZM37.8067 6.05995C37.9227 5.91305 38.0613 6.13274 38.308 6.13274C38.5547 6.13274 38.708 6.42654 39.044 6.43316C39.38 6.43977 39.6373 6.67137 39.496 6.77989C39.3547 6.88841 39.12 6.63035 38.5227 6.61976C37.9253 6.60917 37.6253 6.2889 37.8067 6.05598V6.05995ZM36.808 8.44211C36.6093 8.52019 36.3627 8.19728 36.468 8.12184C36.5307 8.07552 36.6627 8.22904 36.752 8.18404C36.8933 8.10861 36.7653 7.83995 36.8853 7.83598C37.0453 7.82407 37.0387 8.34418 36.808 8.4355V8.44211ZM36.056 6.81563C36.2347 6.77328 36.2373 6.66211 36.508 6.6449C36.7787 6.6277 36.6827 6.44904 36.848 6.47154C37.0133 6.49403 37.048 6.80901 36.848 6.88709C36.6002 6.97468 36.3391 7.01944 36.076 7.01943C35.9507 6.99296 35.908 6.84474 36.056 6.80901V6.81563ZM35.1493 7.49322C35.2547 7.49322 35.2827 7.39793 35.3693 7.39131C35.456 7.3847 35.512 7.59777 35.6533 7.59777C35.7947 7.59777 35.7093 7.77114 35.5453 7.77114C35.3813 7.77114 35.2507 7.60042 35.1133 7.60042C34.976 7.60042 34.8187 7.55542 34.8187 7.43102C34.8187 7.30662 35.04 7.48925 35.1493 7.4866V7.49322ZM33.896 7.25103C33.9627 7.22059 34.008 7.2775 34.048 7.29338C34.14 7.33573 34.272 7.11737 34.256 7.31588C34.24 7.51439 33.972 7.49586 33.896 7.43366C33.82 7.37146 33.8267 7.27882 33.896 7.24441V7.25103ZM32.0213 8.41697C32.0693 8.40903 32.0893 8.45402 32.1107 8.47123C32.1627 8.5149 32.2867 8.39712 32.244 8.52284C32.2013 8.64857 32.0307 8.58769 31.992 8.53475C31.9533 8.48181 31.972 8.42358 32.0213 8.41697ZM33.6213 7.98685C33.5853 7.90613 33.9813 7.94451 34.1067 7.96436C34.2813 7.98685 34.284 8.14434 34.1893 8.17346C34.0947 8.20257 34.0307 8.06229 33.912 8.04906C33.7773 8.03317 33.6493 8.03979 33.6253 7.98685H33.6213ZM29.6853 8.4699C29.7507 8.59431 29.8933 8.55857 30.0347 8.68827C30.0744 8.73719 30.132 8.76854 30.195 8.77548C30.2579 8.78242 30.3211 8.76439 30.3707 8.72532C30.4773 8.66577 30.5467 8.78091 30.7533 8.78091C30.8581 8.77453 30.9593 8.74074 31.0467 8.68297C31.0838 8.71414 31.1076 8.75813 31.1133 8.80605C31.1267 9.05221 30.8627 9.22558 30.3387 9.11176C30.0798 9.05891 29.826 8.98409 29.58 8.88811C29.5117 8.78229 29.4794 8.65749 29.488 8.5321C29.488 8.36006 29.6133 8.33756 29.6853 8.4699ZM28.2947 9.31689C28.4813 9.27984 28.5707 9.10779 28.6947 9.07471C28.8573 9.03501 28.9693 9.23484 28.916 9.36586C28.8813 9.45321 28.704 9.51144 28.508 9.55114C28.2827 9.5829 28.1493 9.38439 28.2947 9.32219V9.31689Z" />
</g>
<defs>
<clipPath id="clip0_874_862">
<rect width="40" height="60" fill="white"/>
</clipPath>
</defs>
</svg>
